# xmcd
#
# Track frame offsets:
#	150
#	18885
#	34403
#	51793
#	70913
#	86551
#	105239
#	117917
#	136934
#	155661
#	171194
#	188329
#	207384
#	223001
#	241706
#	254416
#
# Disc length: 3645 seconds
#
# Revision: 0
# Processed by: cddbd v1.5.2PL0 Copyright (c) Steve Scherf et al.
# Submitted via: audiograbber 1.83.01
#
DISCID=d60e3b10
DTITLE=Karaoke - Priddis Karaoke Sampler 16
DYEAR=2001
DGENRE=Country
TTITLE0=Reba McEntire - Is There Life Out There
TTITLE1=Judds, The - Grandpa
TTITLE2=Randy Travis - Forever And Ever Amen
TTITLE3=Alabama - Mountain Music
TTITLE4=George Strait - Ocean Front Property
TTITLE5=John Micael Montgomery - I Love The Way You Love Me
TTITLE6=Trisha Yearwood - Thats What I Like About You
TTITLE7=Faith Hill - Piece Of My Heart
TTITLE8=Reba McEntire - Is There Life Out There [Vocals]
TTITLE9=Judds, The - Grandpa [Vocals]
TTITLE10=Randy Travis - Forever And Ever Amen [Vocals]
TTITLE11=Alabama - Mountain Music [Vocals]
TTITLE12=George Strait - Ocean Front Property [Vocals]
TTITLE13=John Micael Montgomery - I Love The Way You Love Me [Vocals]
TTITLE14=Trisha Yearwood - Thats What I Like About You [Vocals]
TTITLE15=Faith Hill - Piece Of My Heart [Vocals]
EXTD=
EXTT0=
EXTT1=
EXTT2=
EXTT3=
EXTT4=
EXTT5=
EXTT6=
EXTT7=
EXTT8=
EXTT9=
EXTT10=
EXTT11=
EXTT12=
EXTT13=
EXTT14=
EXTT15=
PLAYORDER=
